<svg xmlns="http://www.w3.org/2000/svg" viewBox="0 0 502.66 393.34"><defs><style>.cls-1{fill:#10002b;}</style></defs><g id="Layer_2" data-name="Layer 2"><g id="Layer_1-2" data-name="Layer 1"><g id="Layer_2-2" data-name="Layer 2"><g id="Layer_1-2-2" data-name="Layer 1-2"><path class="cls-1" d="M439.26,326.37a228.5,228.5,0,0,1-43.08,10.24,227,227,0,0,1-45.5,1.87q-22.62-1.32-40.12-8.6t-27.47-21.54a39.68,39.68,0,0,1-3.42-5.88A123.8,123.8,0,0,0,281.26,272a131.68,131.68,0,0,0-1.74-15.1,35.68,35.68,0,0,1,8.41-10.76q11.06-9.71,27.74-15.61a241.43,241.43,0,0,1,37.42-9.7q20.75-3.78,42-8.08a419.73,419.73,0,0,0,41.19-10.5,114.32,114.32,0,0,0,35-17.51A79.08,79.08,0,0,0,495,155.92q8.61-17.5,7.53-44.44-1.62-32.82-16.7-54.93a113.17,113.17,0,0,0-38.51-35.26Q423.9,8.08,394.57,3.23A244,244,0,0,0,335.06.82a265,265,0,0,0-58.44,11.3,207.06,207.06,0,0,0-25.27,9.71A211,211,0,0,0,226,12.12,264.54,264.54,0,0,0,167.63.82,244.16,244.16,0,0,0,108.1,3.23Q78.73,8.09,55.32,21.29a113.24,113.24,0,0,0-38.5,35.26Q1.73,78.63.13,111.48-1,138.42,7.67,155.92a78.85,78.85,0,0,0,23.7,28.81,114.55,114.55,0,0,0,35,17.51,420.12,420.12,0,0,0,41.21,10.5q21.24,4.32,42,8.08a241.67,241.67,0,0,1,37.44,9.7q16.68,5.92,27.73,15.61a35.56,35.56,0,0,1,8.42,10.8A131.33,131.33,0,0,0,221.43,272,124.1,124.1,0,0,0,223,302.5a42.11,42.11,0,0,1-3.4,5.84q-10,14.25-27.47,21.54T152,338.48a227.2,227.2,0,0,1-45.52-1.87,228.32,228.32,0,0,1-43.08-10.24q-20.2-7-33.66-16.7L5.51,358.15q22.1,14.52,51.71,23.7a258.48,258.48,0,0,0,60.85,11,242.71,242.71,0,0,0,61.4-4.05q30.15-5.94,53.32-20.45a111.27,111.27,0,0,0,18.56-14.57,110.2,110.2,0,0,0,18.54,14.57q23.12,14.58,53.32,20.49a242.68,242.68,0,0,0,61.4,4.05,258.56,258.56,0,0,0,60.86-11q29.61-9.17,51.68-23.7l-24.22-48.48Q459.49,319.37,439.26,326.37ZM260.46,198.74a86.65,86.65,0,0,0-9.13,7.19,84.12,84.12,0,0,0-9.13-7.19,132.19,132.19,0,0,0-36.61-17.51A392.31,392.31,0,0,0,164.38,171q-21-4-40.92-7.56a229.88,229.88,0,0,1-35.55-8.88Q72.28,149.22,63.14,140T54,115.8q.51-21,11.56-34.2A68.5,68.5,0,0,1,94.12,61.67q17.46-6.7,39.57-7.53a237.85,237.85,0,0,1,43.89,2.41A207.77,207.77,0,0,1,219,67q19,7,31.68,15.82c.2.12.4.28.6.42l.63-.44q12.69-8.76,31.67-15.8a207.48,207.48,0,0,1,41.48-10.5A237.45,237.45,0,0,1,369,54.14q22,.81,39.58,7.53A68.35,68.35,0,0,1,437.12,81.6q11.07,13.22,11.59,34.2,0,15.08-9.15,24.24t-24.78,14.53a230.17,230.17,0,0,1-35.55,8.88q-20,3.56-41,7.56a391.16,391.16,0,0,0-41.18,10.22A132.65,132.65,0,0,0,260.46,198.74Z"/></g></g></g></g></svg>