<?xml version="1.0" encoding="utf-8"?>
<!-- Generator: Adobe Illustrator 25.2.0, SVG Export Plug-In . SVG Version: 6.00 Build 0)  -->
<svg version="1.1" id="Layer_1" xmlns="http://www.w3.org/2000/svg" xmlns:xlink="http://www.w3.org/1999/xlink" x="0px" y="0px"
	 viewBox="0 0 502.7 393.3" style="enable-background:new 0 0 502.7 393.3;" xml:space="preserve">
<style type="text/css">
	.st0{fill:#DECAFF;}
</style>
<g id="Layer_2_1_">
	<g id="Layer_1-2">
		<path class="st0" d="M439.2,326.4c-14,4.8-28.4,8.2-43.1,10.2c-15.1,2.2-30.3,2.8-45.5,1.9c-15.1-0.9-28.5-3.7-40.1-8.6
			s-20.8-12-27.5-21.5c-1.3-1.9-2.4-3.8-3.4-5.9c1.8-10,2.3-20.3,1.6-30.4c-0.3-5.1-0.9-10.1-1.7-15.1c2.1-4.1,4.9-7.7,8.4-10.8
			c7.4-6.5,16.6-11.7,27.7-15.6c12.2-4.2,24.7-7.5,37.4-9.7c13.8-2.5,27.8-5.2,42-8.1c13.9-2.8,27.6-6.3,41.2-10.5
			c12.6-3.8,24.4-9.7,35-17.5c10.1-7.6,18.2-17.5,23.7-28.8c5.7-11.7,8.2-26.5,7.5-44.4c-1.1-21.9-6.6-40.2-16.7-54.9
			c-9.9-14.6-23.1-26.7-38.5-35.3c-15.6-8.8-33.2-14.8-52.8-18.1c-19.7-3.2-39.6-4-59.5-2.4c-19.8,1.6-39.4,5.4-58.4,11.3
			c-8.6,2.7-17.1,5.9-25.3,9.7c-8.2-3.8-16.7-7-25.3-9.7c-19-5.9-38.6-9.7-58.4-11.3c-19.9-1.6-39.9-0.8-59.5,2.4
			c-19.6,3.2-37.2,9.3-52.8,18.1C39.9,29.9,26.7,42,16.8,56.5C6.8,71.3,1.2,89.6,0.1,111.5c-0.7,18,1.8,32.8,7.5,44.4
			c5.5,11.4,13.6,21.2,23.7,28.8c10.6,7.8,22.4,13.7,35,17.5c13.5,4.2,27.3,7.7,41.2,10.5c14.2,2.9,28.2,5.6,42,8.1
			c12.7,2.2,25.2,5.5,37.4,9.7c11.1,4,20.4,9.2,27.7,15.6c3.5,3,6.3,6.7,8.4,10.8c-0.9,5-1.4,10-1.7,15.1
			c-0.7,10.2-0.2,20.4,1.6,30.5c-1,2-2.1,4-3.4,5.8c-6.7,9.5-15.8,16.7-27.5,21.5s-25,7.7-40.1,8.6c-15.2,0.9-30.4,0.3-45.5-1.9
			c-14.7-2-29.1-5.4-43.1-10.2c-13.5-4.7-24.7-10.2-33.7-16.7L5.5,358.1c14.7,9.7,32,17.6,51.7,23.7c19.8,6.1,40.2,9.8,60.8,11
			c20.6,1.3,41.2-0.1,61.4-4c20.1-4,37.9-10.8,53.3-20.5c6.7-4.2,12.9-9.1,18.6-14.6c5.6,5.5,11.9,10.4,18.5,14.6
			c15.4,9.7,33.2,16.5,53.3,20.5c20.2,4,40.8,5.3,61.4,4c20.7-1.2,41.1-4.9,60.9-11c19.7-6.1,37-14,51.7-23.7l-24.2-48.5
			C464,316.1,452.7,321.7,439.2,326.4z M260.5,198.7c-3.2,2.2-6.2,4.6-9.1,7.2c-2.9-2.6-5.9-5-9.1-7.2
			c-11.2-7.7-23.6-13.6-36.6-17.5c-13.5-4.1-27.3-7.6-41.2-10.2c-14-2.7-27.6-5.2-40.9-7.6c-12.1-2-24-5-35.6-8.9
			c-10.4-3.6-18.7-8.4-24.8-14.6S54,125.8,54,115.8c0.3-14,4.2-25.4,11.6-34.2c7.6-9,17.5-15.9,28.6-19.9c11.6-4.5,24.8-7,39.6-7.5
			c14.7-0.5,29.4,0.3,43.9,2.4c14.1,2.1,28,5.6,41.4,10.5c12.7,4.7,23.2,9.9,31.7,15.8c0.2,0.1,0.4,0.3,0.6,0.4l0.6-0.4
			c8.5-5.8,19-11.1,31.7-15.8c13.4-4.9,27.3-8.4,41.5-10.5c14.5-2.1,29.3-2.9,43.9-2.4c14.7,0.5,27.9,3.1,39.6,7.5
			c11.1,4.1,20.9,10.9,28.5,19.9c7.4,8.8,11.2,20.2,11.6,34.2c0,10.1-3,18.1-9.1,24.2c-6.1,6.1-14.4,10.9-24.8,14.5
			c-11.6,3.9-23.5,6.9-35.5,8.9c-13.3,2.4-26.9,4.9-41,7.6c-13.9,2.7-27.6,6.1-41.2,10.2C284.1,185.1,271.7,191.1,260.5,198.7z"/>
	</g>
</g>
</svg>
